<svg width="170" height="30" viewBox="0 0 170 30" fill="none" xmlns="http://www.w3.org/2000/svg">
<g clip-path="url(#clip0_272_38)">
<mask id="mask0_272_38" style="mask-type:luminance" maskUnits="userSpaceOnUse" x="0" y="0" width="170" height="30">
<path d="M169.319 0H0V30H169.319V0Z" fill="white"/>
</mask>
<g mask="url(#mask0_272_38)">
<path d="M23.4928 12.3715L12.4234 19.3538L0.570097 11.8936L0 12.2388V17.6546L12.4234 25.46L23.4928 18.5043V21.3715L12.4234 28.3538L0.570097 20.8936L0 21.2388V22.168L12.4234 29.9733L24.823 22.168V16.752L24.2529 16.4069L12.4234 23.8405L1.33023 16.8848V14.0175L12.4234 20.9733L24.823 13.168V7.83168L24.2054 7.43344L12.4234 14.8405L1.90032 8.25646L12.4234 1.64583L21.0698 7.08832L21.83 6.61044V5.94672L12.4234 0.0263672L0 7.83168V8.68123L12.4234 16.4865L23.4928 9.50424V12.3715Z" fill="white"/>
<path d="M48.0305 25.5397V1.69897H44.7525V10.6193C44.7525 10.7521 44.6811 10.8583 44.5623 10.9114C44.4437 10.9645 44.3249 10.9114 44.2535 10.8317C43.1371 9.37154 41.4031 8.54854 39.5028 8.54854C35.4408 8.54854 32.2578 12.3715 32.2578 17.2565C32.2578 19.6459 32.9942 21.8494 34.3481 23.4689C35.7021 25.0884 37.5312 25.9645 39.5028 25.9645C41.3793 25.9645 43.1134 25.0884 44.2535 23.5751C44.3249 23.4689 44.4674 23.4424 44.5623 23.4689C44.6811 23.522 44.7525 23.6282 44.7525 23.7609V25.5397H48.0305ZM40.2154 22.6459C37.6024 22.6459 35.5596 20.283 35.5596 17.2565C35.5596 14.23 37.6024 11.8671 40.2154 11.8671C42.8283 11.8671 44.8711 14.23 44.8711 17.2565C44.8711 20.283 42.8283 22.6459 40.2154 22.6459Z" fill="white"/>
<path d="M65.5609 25.5397V8.94675H62.3067V10.6193C62.3067 10.7521 62.2354 10.8582 62.1167 10.9113C61.9979 10.9644 61.8791 10.9113 61.8079 10.8052C60.7152 9.34497 59.0049 8.52197 57.057 8.52197C52.995 8.52197 49.812 12.345 49.812 17.2299C49.812 22.1149 52.995 25.9379 57.057 25.9379C58.9336 25.9379 60.6676 25.0618 61.8079 23.5219C61.8791 23.4158 62.0216 23.3892 62.1167 23.4158C62.2354 23.4688 62.3067 23.5751 62.3067 23.7078V25.5131H65.5609V25.5397ZM57.7934 22.6458C55.1804 22.6458 53.1376 20.2831 53.1376 17.2564C53.1376 14.2299 55.1804 11.8671 57.7934 11.8671C60.4064 11.8671 62.4492 14.2299 62.4492 17.2564C62.4492 20.2831 60.4064 22.6458 57.7934 22.6458Z" fill="white"/>
<path d="M93.4247 25.5397V8.94675H90.1704V10.6193C90.1704 10.7521 90.0992 10.8582 89.9804 10.9113C89.8617 10.9644 89.7429 10.9113 89.6716 10.8052C88.5789 9.34497 86.8686 8.52197 84.9208 8.52197C80.8351 8.52197 77.6758 12.345 77.6758 17.2564C77.6758 22.1679 80.8588 25.9644 84.9208 25.9644C86.7973 25.9644 88.5314 25.0883 89.6716 23.5486C89.7429 23.4423 89.8854 23.4158 89.9804 23.4423C90.0992 23.4954 90.1704 23.6016 90.1704 23.7343V25.5397H93.4247ZM85.6572 22.6458C83.0442 22.6458 81.0013 20.2831 81.0013 17.2564C81.0013 14.2299 83.0442 11.8671 85.6572 11.8671C88.2701 11.8671 90.3129 14.2299 90.3129 17.2564C90.3129 20.2831 88.2701 22.6458 85.6572 22.6458Z" fill="white"/>
<path d="M99.3871 23.5751C99.4108 23.5751 99.4583 23.5485 99.482 23.5485C99.5533 23.5485 99.6483 23.6016 99.6959 23.6547C100.812 25.1149 102.546 25.9379 104.447 25.9379C108.509 25.9379 111.692 22.1149 111.692 17.23C111.692 14.8406 110.955 12.637 109.601 11.0176C108.247 9.39809 106.418 8.52199 104.447 8.52199C102.57 8.52199 100.836 9.39809 99.6959 10.9114C99.6246 11.0176 99.5058 11.0441 99.3871 11.0176C99.2683 10.9645 99.197 10.8583 99.197 10.7255V1.69897H95.9189V25.5397H99.197V23.8671C99.197 23.7344 99.2683 23.6282 99.3871 23.5751ZM99.0544 17.2565C99.0544 14.23 101.097 11.8671 103.71 11.8671C106.323 11.8671 108.366 14.23 108.366 17.2565C108.366 20.283 106.323 22.6459 103.71 22.6459C101.097 22.6459 99.0544 20.2565 99.0544 17.2565Z" fill="white"/>
<path d="M121.168 12.3449C121.478 12.3449 121.762 12.3715 121.952 12.4246V8.65465C121.834 8.6281 121.62 8.60156 121.407 8.60156C119.697 8.60156 118.129 9.58386 117.296 11.1502C117.226 11.283 117.107 11.3361 116.988 11.283C116.869 11.2564 116.774 11.1237 116.774 10.9909V8.94669H113.52V25.5662H116.798V18.2387C116.798 14.6016 118.461 12.3449 121.168 12.3449Z" fill="white"/>
<path d="M127.346 8.94678H124.02V25.5663H127.346V8.94678Z" fill="white"/>
<path d="M125.636 1.72534C124.518 1.72534 123.616 2.73419 123.616 3.98198C123.616 5.22977 124.518 6.23862 125.636 6.23862C126.752 6.23862 127.654 5.22977 127.654 3.98198C127.654 2.73419 126.752 1.72534 125.636 1.72534Z" fill="white"/>
<path d="M137.085 8.52197C132.524 8.52197 129.222 12.1857 129.222 17.2564C129.222 19.7256 130.005 21.9291 131.408 23.5219C132.832 25.1149 134.828 25.9909 137.06 25.9909C138.913 25.9909 140.338 25.5928 143.047 23.3627L141.17 21.1592C139.839 22.1414 138.605 22.6193 137.393 22.6193C134.638 22.6193 132.571 20.3096 132.571 17.2564C132.571 14.2034 134.638 11.8936 137.393 11.8936C138.7 11.8936 139.911 12.3715 141.122 13.3538L143.212 11.1503C140.767 8.81401 138.557 8.52197 137.085 8.52197Z" fill="white"/>
<path d="M148.819 18.2386C148.866 18.1855 148.938 18.159 149.009 18.159H149.033C149.104 18.159 149.175 18.2121 149.246 18.2651L154.496 25.5395H158.535L151.74 16.3536C151.645 16.2209 151.645 16.0351 151.764 15.9289L158.011 8.94658H153.997L148.606 14.9996C148.534 15.0794 148.415 15.1059 148.297 15.0794C148.202 15.0263 148.13 14.92 148.13 14.7873V1.72534H144.829V25.566H148.107V19.0881C148.107 19.0085 148.13 18.9024 148.202 18.8493L148.819 18.2386Z" fill="white"/>
<path d="M163.879 25.9642C166.563 25.9642 169.295 24.1323 169.295 20.6544C169.295 18.3713 168.012 16.8049 165.4 15.8492L163.618 15.1854C162.406 14.734 161.837 14.0969 161.837 13.2208C161.837 12.2119 162.644 11.5217 163.784 11.5217C164.876 11.5217 165.851 12.3181 166.468 13.6987L169.105 12.1057C168.131 9.87566 166.112 8.49512 163.784 8.49512C160.839 8.49512 158.7 10.619 158.7 13.5128C158.7 15.8225 159.936 17.3624 162.477 18.265L164.307 18.9288C165.589 19.38 166.136 19.9642 166.136 20.8933C166.136 22.3004 164.971 22.8049 163.974 22.8049C162.644 22.8049 161.456 21.8492 160.886 20.2828L158.202 21.8757C159.081 24.3978 161.243 25.9642 163.879 25.9642Z" fill="white"/>
<path d="M74.6827 25.805C75.7279 25.805 76.6544 25.6989 77.1769 25.6193V22.4334C76.7494 22.4865 75.9893 22.5395 75.5379 22.5395C74.2078 22.5395 73.1863 22.2741 73.1863 19.0616V12.2387C73.1863 12.0528 73.3051 11.9201 73.4713 11.9201H76.6781V8.92009H73.4713C73.3051 8.92009 73.1863 8.78735 73.1863 8.60152V3.82275H69.9082V8.62807C69.9082 8.8139 69.7894 8.94664 69.6231 8.94664H67.3428V11.9466H69.6231C69.7894 11.9466 69.9082 12.0794 69.9082 12.2652V19.9909C69.9082 25.805 73.3763 25.805 74.6827 25.805Z" fill="white"/>
</g>
</g>
<defs>
<clipPath id="clip0_272_38">
<rect width="170" height="30" fill="white"/>
</clipPath>
</defs>
</svg>
