<svg width="162" height="146" viewBox="0 0 162 146" fill="none" xmlns="http://www.w3.org/2000/svg">
<path d="M137.229 12.1881C126.743 6.49429 115.53 2.35624 103.808 0C102.368 3.02062 100.686 7.08341 99.5263 10.3154C87.0649 8.14054 74.7181 8.14054 62.4858 10.3154C61.3264 7.08341 59.6062 3.02062 58.1537 0C46.4184 2.35624 35.1929 6.50949 24.7063 12.2183C3.55484 49.3107 -2.17898 85.4818 0.687937 121.139C14.7167 133.297 28.3123 140.683 41.6784 145.515C44.9785 140.244 47.9219 134.641 50.4574 128.736C45.6283 126.607 41.0031 123.979 36.6327 120.928C37.7922 119.931 38.9263 118.889 40.022 117.817C66.6778 132.285 95.6401 132.285 121.977 117.817C123.086 118.889 124.22 119.931 125.367 120.928C120.983 123.994 116.346 126.622 111.516 128.751C114.052 134.641 116.983 140.26 120.296 145.53C133.675 140.697 147.283 133.312 161.311 121.139C164.675 79.8032 155.565 43.9643 137.229 12.1881ZM54.0889 99.2103C46.0871 99.2103 39.525 90.5412 39.525 79.9844C39.525 69.4276 45.947 60.7435 54.0889 60.7435C62.2311 60.7435 68.793 69.4123 68.6529 79.9844C68.6656 90.5412 62.2311 99.2103 54.0889 99.2103ZM107.911 99.2103C99.9087 99.2103 93.3465 90.5412 93.3465 79.9844C93.3465 69.4276 99.7683 60.7435 107.911 60.7435C116.052 60.7435 122.615 69.4123 122.474 79.9844C122.474 90.5412 116.052 99.2103 107.911 99.2103Z" fill="white"/>
</svg>
