<svg width="162" height="48" viewBox="0 0 162 48" fill="none" xmlns="http://www.w3.org/2000/svg">
<path d="M68.9392 24.6157C68.9392 31.2783 62.9893 36.1878 55.6874 36.1878C48.3855 36.1878 42.4355 31.2783 42.4355 24.6157C42.4355 17.9061 48.3855 13.0435 55.6874 13.0435C62.9893 13.0435 68.9392 17.9061 68.9392 24.6157ZM63.1382 24.6157C63.1382 20.4522 59.6897 17.6035 55.6874 17.6035C51.685 17.6035 48.2366 20.4522 48.2366 24.6157C48.2366 28.7374 51.685 31.6278 55.6874 31.6278C59.6897 31.6278 63.1382 28.7322 63.1382 24.6157Z" fill="white"/>
<path d="M97.5276 24.6157C97.5276 31.2783 91.5777 36.1878 84.2758 36.1878C76.9739 36.1878 71.0239 31.2783 71.0239 24.6157C71.0239 17.9113 76.9739 13.0435 84.2758 13.0435C91.5777 13.0435 97.5276 17.9061 97.5276 24.6157ZM91.7266 24.6157C91.7266 20.4522 88.2781 17.6035 84.2758 17.6035C80.2734 17.6035 76.825 20.4522 76.825 24.6157C76.825 28.7374 80.2734 31.6278 84.2758 31.6278C88.2781 31.6278 91.7266 28.7322 91.7266 24.6157Z" fill="white"/>
<path d="M124.924 13.7426V34.5183C124.924 43.0643 119.171 46.5548 112.37 46.5548C105.967 46.5548 102.113 42.8035 100.66 39.7357L105.711 37.8939C106.61 39.7774 108.814 42 112.364 42C116.717 42 119.415 39.647 119.415 35.2174V33.553H119.213C117.914 34.9565 115.413 36.1826 112.256 36.1826C105.651 36.1826 99.6001 31.1426 99.6001 24.6574C99.6001 18.1252 105.651 13.0435 112.256 13.0435C115.407 13.0435 117.908 14.2696 119.213 15.6313H119.415V13.7478H124.924V13.7426ZM119.826 24.6574C119.826 20.5826 116.723 17.6035 112.775 17.6035C108.772 17.6035 105.419 20.5826 105.419 24.6574C105.419 28.6904 108.772 31.6278 112.775 31.6278C116.723 31.6278 119.826 28.6904 119.826 24.6574Z" fill="white"/>
<path d="M134.007 1.56522V35.4783H128.349V1.56522H134.007Z" fill="white"/>
<path d="M156.056 28.4244L160.559 31.0539C159.106 32.9374 155.603 36.1826 149.552 36.1826C142.048 36.1826 136.443 31.1009 136.443 24.6104C136.443 17.7287 142.095 13.0383 148.903 13.0383C155.758 13.0383 159.111 17.8174 160.207 20.4L160.809 21.7148L143.15 28.1217C144.502 30.4435 146.604 31.6278 149.552 31.6278C152.506 31.6278 154.555 30.3548 156.056 28.4244ZM142.197 24.2609L154.001 19.967C153.352 18.5217 151.399 17.5148 149.1 17.5148C146.151 17.5148 142.048 19.7948 142.197 24.2609Z" fill="white"/>
<path d="M21.0183 21.6052V16.6957H39.9044C40.089 17.5513 40.1843 18.5635 40.1843 19.6591C40.1843 23.3426 39.0348 27.8974 35.3302 31.1426C31.7269 34.4296 27.123 36.1826 21.0242 36.1826C9.71994 36.1826 0.214355 28.1165 0.214355 18.2139C0.214355 8.31131 9.71994 0.245224 21.0242 0.245224C27.2779 0.245224 31.7329 2.39479 35.0801 5.19653L31.1254 8.66088C28.7252 6.6887 25.4733 5.15479 21.0183 5.15479C12.7634 5.15479 6.30722 10.9826 6.30722 18.2139C6.30722 25.4452 12.7634 31.2731 21.0183 31.2731C26.3726 31.2731 29.422 29.3896 31.3755 27.6783C32.9598 26.2904 34.0021 24.3078 34.413 21.6L21.0183 21.6052Z" fill="white"/>
</svg>
