<svg width="216" height="39" viewBox="0 0 216 39" fill="none" xmlns="http://www.w3.org/2000/svg">
<path d="M0 0H15.5215C18.4422 0 20.725 0.735225 22.304 2.02028C24.0845 3.51205 25.0891 5.69219 25.0891 8.30705C25.0891 11.3332 23.8555 13.264 21.346 14.4126V14.5512C24.6313 15.6529 26.505 18.5895 26.505 22.1698C26.505 25.5668 25.2269 28.2285 23.0819 29.8354C21.3015 31.1204 18.9276 31.764 15.8224 31.764H0.0275552V0H0ZM13.989 12.4392C15.6783 12.4392 16.8653 11.5229 16.8653 9.63898C16.8653 7.84886 15.5872 6.93245 13.9445 6.93245H8.60325V12.3945H13.9869L13.989 12.4392ZM14.7648 24.7399C16.6364 24.7399 18.0501 23.5934 18.0501 21.4794C18.0501 19.2758 16.5664 18.2188 14.7182 18.2188H8.60114V24.7357L14.7648 24.7399ZM28.0501 0.0191856H36.1765V31.828H28.0501V0.0191856Z" fill="white"/>
<path d="M40 20.0258C40 12.8653 44.61 8 51.7317 8C58.8534 8 63.3723 12.8653 63.3723 20.0258C63.3723 27.2289 58.8534 32.0516 51.7317 32.0516C44.61 32.0516 40 27.2353 40 20.0258ZM55.3392 20.0258C55.3392 16.079 54.0611 13.5537 51.6406 13.5537C49.2201 13.5537 48.0373 16.0321 48.0373 20.0258C48.0373 24.0195 49.2243 26.498 51.6406 26.498C54.0611 26.5449 55.3392 24.0642 55.3392 20.0258Z" fill="white"/>
<path d="M65 20.0258C65 12.8653 69.61 8 76.7317 8C83.8534 8 88.3723 12.8653 88.3723 20.0258C88.3723 27.2289 83.8534 32.0516 76.7317 32.0516C69.61 32.0516 65 27.2353 65 20.0258ZM80.3392 20.0258C80.3392 16.079 79.0611 13.5537 76.6406 13.5537C74.2201 13.5537 73.0373 16.0321 73.0373 20.0258C73.0373 24.0195 74.2243 26.498 76.6406 26.498C79.0611 26.5449 80.3392 24.0642 80.3392 20.0258Z" fill="white"/>
<path d="M91.3428 9.13385H98.8947V12.5308H99.0325C100.516 9.86693 102.593 8.4455 105.815 8.4455C108.645 8.4455 110.792 9.86911 111.888 12.3455H112.025C113.852 9.36191 116.271 8.4455 119.009 8.4455C124.259 8.4455 126.496 12.3454 126.496 17.5325V31.8535H118.551V19.003C118.551 16.663 117.82 15.167 115.813 15.167C113.85 15.167 112.846 17.004 112.846 19.4825V31.8748H104.993V19.0243C104.993 16.6844 104.261 15.1883 102.254 15.1883C100.292 15.1883 99.2869 17.0253 99.2869 19.5038V31.8961H91.3428V9.17859V9.13385ZM136.538 28.8678H136.447V31.8045H128.914V0H136.835V11.4738H136.972C138.456 9.50044 140.487 8.44765 143.41 8.44765C149.069 8.44765 152.354 13.5878 152.354 20.4244C152.354 28.1347 148.793 32.5887 142.905 32.5887C140.393 32.5887 137.882 31.3953 136.515 28.87L136.538 28.8678ZM144.253 20.3775C144.253 16.7056 142.928 14.3678 140.51 14.3678C138.092 14.3678 136.538 16.7078 136.538 20.3775C136.538 24.0004 138.089 26.3872 140.51 26.3872C142.931 26.3872 144.253 24.0473 144.253 20.3775ZM153.244 20.4244C153.244 13.3556 157.901 8.39861 164.656 8.39861C168.035 8.39861 170.591 9.45355 172.6 11.3353C175.203 13.8607 176.39 17.8522 176.299 22.4894H161.144C161.462 25.3345 162.833 26.7581 165.207 26.7581C166.576 26.7581 167.81 26.1144 168.312 24.6013H175.936C174.611 29.7884 170.595 32.4012 164.915 32.4012C157.931 32.4481 153.227 27.7192 153.227 20.4244H153.244ZM161.142 18.0845H168.355C168.217 15.3311 166.712 13.9075 164.84 13.9075C162.649 13.9075 161.462 15.4675 161.142 18.0845ZM185.292 13.0338H185.43C187.072 9.86698 189.219 8.67352 191.911 8.67352C192.551 8.67352 192.96 8.76516 193.189 8.90368V15.8809H193.007C188.35 15.0541 185.589 17.2576 185.589 22.3978V31.8535H177.645V9.17859H185.177V13.0146L185.292 13.0338Z" fill="white"/>
<path d="M193.999 31.4261H201.623C201.899 32.3894 202.901 33.3548 204.819 33.3548C207.376 33.3548 208.243 31.7479 208.243 29.408V27.7563H208.06C206.782 29.2481 205.14 30.3265 202.628 30.3265C197.742 30.3265 193.543 26.7036 193.543 19.6326C193.543 13.1157 197.013 8.065 202.263 8.065C205.273 8.065 207.149 9.30529 208.336 11.2318H208.474V8.75334H216V28.3978C216 32.0207 214.722 34.8699 212.85 36.5216C210.888 38.3117 208.06 39 204.86 39C198.925 39 194.728 36.5216 193.995 31.4261H193.999ZM208.56 19.2149C208.56 16.3699 207.236 14.1003 204.908 14.1003C202.672 14.1003 201.257 16.1205 201.257 19.2149C201.257 22.2411 202.672 24.4468 204.908 24.4468C207.236 24.4468 208.56 22.1984 208.56 19.2149Z" fill="white"/>
</svg>
