<svg width="273" height="273" viewBox="0 0 273 273" fill="none" xmlns="http://www.w3.org/2000/svg">
<g clip-path="url(#clip0_238_62)">
<path d="M142.898 63.8623C160.533 63.8623 174.829 49.5663 174.829 31.9312C174.829 14.2961 160.533 0 142.898 0C125.262 0 110.966 14.2961 110.966 31.9312C110.966 49.5663 125.262 63.8623 142.898 63.8623Z" fill="#7F00FF" fill-opacity="0.54"/>
<path d="M142.898 273C153.477 273 162.054 264.423 162.054 253.843C162.054 243.263 153.477 234.687 142.898 234.687C132.318 234.687 123.741 243.263 123.741 253.843C123.741 264.423 132.318 273 142.898 273Z" fill="#7F00FF" fill-opacity="0.54"/>
<path d="M64.4373 93.1619C80.31 93.1619 93.1774 80.2945 93.1774 64.4218C93.1774 48.549 80.31 35.6816 64.4373 35.6816C48.5645 35.6816 35.6971 48.549 35.6971 64.4218C35.6971 80.2945 48.5645 93.1619 64.4373 93.1619Z" fill="#7F00FF" fill-opacity="0.54"/>
<path d="M221.358 237.297C230.175 237.297 237.323 230.149 237.323 221.332C237.323 212.514 230.175 205.366 221.358 205.366C212.54 205.366 205.392 212.514 205.392 221.332C205.392 230.149 212.54 237.297 221.358 237.297Z" fill="#7F00FF" fill-opacity="0.54"/>
<path d="M31.9363 168.431C46.0409 168.431 57.475 156.997 57.475 142.892C57.475 128.788 46.0409 117.354 31.9363 117.354C17.8317 117.354 6.39758 128.788 6.39758 142.892C6.39758 156.997 17.8317 168.431 31.9363 168.431Z" fill="#7F00FF" fill-opacity="0.54"/>
<path d="M253.849 155.647C260.898 155.647 266.613 149.932 266.613 142.882C266.613 135.833 260.898 130.118 253.849 130.118C246.799 130.118 241.084 135.833 241.084 142.882C241.084 149.932 246.799 155.647 253.849 155.647Z" fill="#7F00FF" fill-opacity="0.54"/>
<path d="M48.6375 205.553C39.9036 214.287 39.9036 228.418 48.6375 237.152C57.361 245.886 71.5135 245.886 80.2371 237.152C88.971 228.418 88.971 214.287 80.2371 205.553C71.5135 196.808 57.3714 196.726 48.6375 205.553Z" fill="#7F00FF" fill-opacity="0.54"/>
<path d="M221.348 73.9949C226.635 73.9949 230.921 69.7089 230.921 64.4218C230.921 59.1347 226.635 54.8486 221.348 54.8486C216.06 54.8486 211.774 59.1347 211.774 64.4218C211.774 69.7089 216.06 73.9949 221.348 73.9949Z" fill="#7F00FF" fill-opacity="0.54"/>
</g>
<defs>
<clipPath id="clip0_238_62">
<rect width="273" height="273" fill="white"/>
</clipPath>
</defs>
</svg>
