<svg width="102" height="25" viewBox="0 0 102 25" fill="none" xmlns="http://www.w3.org/2000/svg">
<g clip-path="url(#clip0_256_87)">
<path d="M24.9 2.99998H31.1C33.4 2.99998 34.9 3.10014 36.2 4.5C37.1 5.49999 37.6 6.69999 37.6 8.1C37.6 9.49997 37.1 10.7 36.1 11.7C35.1 12.7 33.8 13.3 30.5 13.3H27.5V21.6H24.9V2.99998ZM27.5 11.2H30.5C32.2 11.2 34.8 11.1002 34.8 8C34.8 5.1 32.4 5.10001 31 5.10001H27.5V11.2ZM45.9 21.6C45.7 21 45.7 20.3 45.7 19.7C44.5 21.8 42.8 22 41.7 22C38.7 22 37.1 20.3 37.1 18.2C37.1 17.2 37.5 15.5 39.4 14.4C40.8 13.6 42.8 13.6 43.9 13.6C44.5 13.6 44.9 13.6 45.6 13.7001C45.6 12.1002 45.6 11.4001 45.1 10.8001C44.6 10.2001 43.6 10.0001 42.9 10.0001C40.5 10.0001 40.3 11.7002 40.3 12.2001H37.9C38 11.5001 38.1 10.6001 38.8 9.80014C39.8 8.70015 41.6 8.40015 43 8.40015C44.9 8.40015 46.9 9.00014 47.6 10.3001C48 11.1002 48 11.7002 48 12.3002L47.9 18.5001C47.9 18.7001 47.9 20.4001 48.1 21.7002H45.9V21.6ZM44.2 15.2C43.2 15.2 39.5 15.2 39.5 17.8C39.5 18.6 40 20 42.2 20C43.4 20 44.4 19.5 45 18.6C45.5 17.7 45.6 17 45.6 15.2C45.2 15.3002 44.8 15.2 44.2 15.2ZM50.1 2.99998H52.5V21.6H50.1V2.99998ZM62.9 21.6C62.7 21 62.7 20.3 62.7 19.7C61.5 21.8 59.8 22 58.7 22C55.7 22 54.1 20.3 54.1 18.2C54.1 17.2 54.5 15.5 56.4 14.4C57.8 13.6 59.8 13.6 60.9 13.6C61.5 13.6 61.9 13.6 62.6 13.7001C62.6 12.1002 62.6 11.4001 62.1 10.8001C61.6 10.2001 60.6 10.0001 59.9 10.0001C57.5 10.0001 57.3 11.7002 57.3 12.2001H54.9C55 11.5001 55.1 10.6001 55.8 9.80014C56.8 8.70015 58.6 8.40015 60 8.40015C61.9 8.40015 63.9 9.00014 64.6 10.3001C65 11.1002 65 11.7002 65 12.3002L64.9 18.5001C64.9 18.7001 64.9 20.4001 65.1 21.7002H62.9V21.6ZM61.3 15.2C60.3 15.2 56.6 15.2 56.6 17.8C56.6 18.6 57.1 20 59.3 20C60.5 20 61.5 19.5 62.1 18.6C62.6 17.7 62.7 17 62.7 15.2C62.2 15.3002 61.9 15.2 61.3 15.2ZM67.2 10.2V8.70001H69.6V10.8C69.9 10.3 70.8 8.49998 73.7 8.49998C74.9 8.49998 78.4 8.89999 78.4 12.9V21.7H75.9V13.5C75.9 12.7 75.8 11.9 75.2 11.3C74.6 10.7 73.7 10.4 72.9 10.4C71.1 10.4 69.5 11.7 69.5 14.3V21.7H67.1V10.2H67.2ZM79.2 8.70001H81.5V5.89997L83.9 5.10001V8.60001H86.8V10.4H83.9V18.1C83.9 18.7 83.9 19.8 85.6 19.8C86.1 19.8 86.6 19.6998 86.8 19.6998V21.5998C86.4 21.7 85.7 21.7998 84.8 21.7998C82.5 21.7998 81.5 21.0998 81.5 18.9997V10.3998H79.2V8.70001ZM88.5 2.99998H91.4V5.69999H88.5V2.99998ZM88.7 8.70001H91.1V21.6H88.7V8.70001ZM93.4 11.3C93.4 10.4 93.3 9.49998 93.3 8.70001H95.7L95.8 11.2C96.3 9.39996 97.8 8.79998 98.9 8.70001C99.6 8.59985 100.2 8.59983 100.6 8.59983V10.9998C100.5 10.9998 100.3 10.8997 100.1 10.8997C99.9 10.8997 99.7 10.8997 99.4 10.8997C96.5 10.8997 95.9 12.5997 95.9 14.7997V21.6997H93.5V11.2997L93.4 11.3ZM10 0.499969C5 0.499969 0.899999 4.59998 0.899999 9.59999C0.899999 14.6 5 18.7 10 18.7C15 18.7 19.1 14.6 19.1 9.59999C19.1 4.59998 15 0.499969 10 0.499969ZM10 15.9C6.5 15.9 3.7 13.1 3.7 9.59999C3.7 6.1 6.5 3.30001 10 3.30001C13.5 3.30001 16.3 6.1 16.3 9.59999C16.2 13.1 13.4 15.9 10 15.9ZM18.1 17.9L10 21.4L1.9 17.9L0.5 20.4L10 24.4L19.5 20.4L18.1 17.9Z" fill="white"/>
</g>
<defs>
<clipPath id="clip0_256_87">
<rect width="101.1" height="24.9" fill="white"/>
</clipPath>
</defs>
</svg>
