<svg width="25" height="25" viewBox="0 0 53 51" fill="none" xmlns="http://www.w3.org/2000/svg">
<path d="M27.2629 0.47879L34.7928 15.8909C34.9165 16.1448 35.1558 16.32 35.4328 16.3606L52.2707 18.8322C52.9685 18.9344 53.2471 19.8008 52.742 20.298L40.5586 32.2943C40.3578 32.4914 40.2663 32.7762 40.3136 33.0544L43.1901 49.994C43.3089 50.6956 42.5798 51.231 41.9558 50.8992L26.8959 42.9011C26.6478 42.7697 26.3522 42.7697 26.1041 42.9011L11.0442 50.8992C10.4202 51.2302 9.69109 50.6956 9.80994 49.994L12.6864 33.0544C12.7338 32.7753 12.6422 32.4914 12.4414 32.2943L0.257961 20.298C-0.247141 19.8008 0.0315084 18.9352 0.729337 18.8322L17.5672 16.3606C17.8442 16.32 18.0835 16.144 18.2072 15.8909L25.7371 0.47879C26.0487 -0.159597 26.9505 -0.159597 27.2621 0.47879H27.2629Z" fill="#E85C0D"/>
<path d="M26.9992 4L20.0191 16.7933C19.6532 17.4644 18.9499 17.9125 18.1555 17.9805L3 19.2894L19.0125 19.9976C20.0291 20.0426 20.9605 19.4593 21.313 18.5559L27 4H26.9992Z" fill="#F7DB5E"/>
<path d="M10.3421 48.0444L10.0128 49.9938C9.89449 50.6956 10.6202 51.231 11.2412 50.8992L26.2304 42.9001C26.4774 42.7687 26.7715 42.7687 27.0185 42.9001L42.0077 50.8992C42.6287 51.231 43.3544 50.6956 43.2361 49.9938L40.3732 33.0522C40.3261 32.7731 40.4172 32.4892 40.617 32.292L52.7433 20.2943C53.246 19.797 52.9686 18.9313 52.2741 18.8283L46.6609 18C37.5822 34.5376 23.68 43.2449 10.3421 48.0444Z" fill="#EDBD31"/>
</svg>
